<mxfile host="app.diagrams.net" modified="2023-03-16T08:04:08.075Z" agent="5.0 (Windows NT 10.0; Win64; x64) AppleWebKit/537.36 (KHTML, like Gecko) Chrome/111.0.0.0 Safari/537.36" etag="Ws_axLx_eE-_Xpm_hxe0" version="21.0.6" type="github">
  <diagram name="Page-1" id="GliLwIMe9PRI_h43iuXn">
    <mxGraphModel dx="1900" dy="549" grid="1" gridSize="10" guides="1" tooltips="1" connect="1" arrows="1" fold="1" page="1" pageScale="1" pageWidth="850" pageHeight="1100" math="0" shadow="0">
      <root>
        <mxCell id="0" />
        <mxCell id="1" parent="0" />
        <mxCell id="1vejGkWzTbSaWZDoLHbg-1" value="" style="verticalLabelPosition=bottom;verticalAlign=top;html=1;shadow=0;dashed=0;strokeWidth=1;shape=mxgraph.android.tab2;strokeColor=#c0c0c0;direction=north;" parent="1" vertex="1">
          <mxGeometry x="-10" y="60" width="430" height="270" as="geometry" />
        </mxCell>
        <mxCell id="1vejGkWzTbSaWZDoLHbg-2" value="" style="verticalLabelPosition=bottom;verticalAlign=top;html=1;shadow=0;dashed=0;strokeWidth=1;shape=mxgraph.android.contact_badge_focused;sketch=0;" parent="1" vertex="1">
          <mxGeometry x="190" y="110" width="40" height="40" as="geometry" />
        </mxCell>
        <mxCell id="1vejGkWzTbSaWZDoLHbg-3" value="&amp;nbsp; &amp;nbsp; Username" style="html=1;shadow=0;dashed=0;shape=mxgraph.bootstrap.rrect;rSize=5;strokeColor=#CED4DA;strokeWidth=1;fillColor=#E9ECEF;fontColor=#505050;whiteSpace=wrap;align=left;verticalAlign=middle;spacingLeft=10;fontSize=14;" parent="1" vertex="1">
          <mxGeometry x="60" y="155" width="290" height="40" as="geometry" />
        </mxCell>
        <mxCell id="1vejGkWzTbSaWZDoLHbg-4" value="&amp;nbsp; &amp;nbsp; Password" style="html=1;shadow=0;dashed=0;shape=mxgraph.bootstrap.rrect;rSize=5;strokeColor=#CED4DA;strokeWidth=1;fillColor=#E9ECEF;fontColor=#505050;whiteSpace=wrap;align=left;verticalAlign=middle;spacingLeft=10;fontSize=14;" parent="1" vertex="1">
          <mxGeometry x="60" y="210" width="290" height="40" as="geometry" />
        </mxCell>
        <mxCell id="1vejGkWzTbSaWZDoLHbg-5" value="Login" style="rounded=1;html=1;shadow=0;dashed=0;whiteSpace=wrap;fontSize=10;fillColor=#666666;align=center;strokeColor=#4D4D4D;fontColor=#ffffff;" parent="1" vertex="1">
          <mxGeometry x="153" y="260" width="105.5" height="30" as="geometry" />
        </mxCell>
        <mxCell id="1vejGkWzTbSaWZDoLHbg-6" value="" style="shape=image;html=1;verticalAlign=top;verticalLabelPosition=bottom;labelBackgroundColor=#ffffff;imageAspect=0;aspect=fixed;image=https://cdn3.iconfinder.com/data/icons/user-interface-169/32/login-128.png" parent="1" vertex="1">
          <mxGeometry x="153" y="262" width="28" height="28" as="geometry" />
        </mxCell>
        <mxCell id="1vejGkWzTbSaWZDoLHbg-7" value="" style="verticalLabelPosition=bottom;verticalAlign=top;html=1;shadow=0;dashed=0;strokeWidth=1;shape=mxgraph.android.tab2;strokeColor=#c0c0c0;direction=north;" parent="1" vertex="1">
          <mxGeometry x="450" y="60" width="430" height="270" as="geometry" />
        </mxCell>
        <mxCell id="1vejGkWzTbSaWZDoLHbg-8" value="Menu" style="html=1;shadow=0;dashed=0;shape=mxgraph.bootstrap.rrect;rSize=5;strokeColor=none;strokeWidth=1;fillColor=#6C767D;fontColor=#ffffff;whiteSpace=wrap;align=left;verticalAlign=middle;fontStyle=0;fontSize=14;spacingLeft=10;" parent="1" vertex="1">
          <mxGeometry x="490" y="90" width="200" height="40" as="geometry" />
        </mxCell>
        <mxCell id="1vejGkWzTbSaWZDoLHbg-9" value="" style="shape=triangle;direction=south;fillColor=#ffffff;strokeColor=none;perimeter=none;" parent="1vejGkWzTbSaWZDoLHbg-8" vertex="1">
          <mxGeometry x="1" y="0.5" width="10" height="5" relative="1" as="geometry">
            <mxPoint x="-17" y="-2.5" as="offset" />
          </mxGeometry>
        </mxCell>
        <mxCell id="1vejGkWzTbSaWZDoLHbg-10" value="" style="html=1;shadow=0;dashed=0;shape=mxgraph.bootstrap.rrect;rSize=5;fillColor=#ffffff;strokeColor=#999999;" parent="1" vertex="1">
          <mxGeometry x="490" y="130" width="195" height="110" as="geometry" />
        </mxCell>
        <mxCell id="1vejGkWzTbSaWZDoLHbg-11" value=" List visitor management" style="fillColor=none;strokeColor=none;align=left;spacing=20;fontSize=14;" parent="1vejGkWzTbSaWZDoLHbg-10" vertex="1">
          <mxGeometry width="150" height="20" relative="1" as="geometry">
            <mxPoint x="1" y="10" as="offset" />
          </mxGeometry>
        </mxCell>
        <mxCell id="1vejGkWzTbSaWZDoLHbg-12" value=" List aparment management" style="fillColor=none;strokeColor=none;align=left;spacing=20;fontSize=14;" parent="1vejGkWzTbSaWZDoLHbg-10" vertex="1">
          <mxGeometry width="150" height="20" relative="1" as="geometry">
            <mxPoint y="29" as="offset" />
          </mxGeometry>
        </mxCell>
        <mxCell id="1vejGkWzTbSaWZDoLHbg-13" value=" Log out" style="fillColor=none;strokeColor=none;align=left;spacing=20;fontSize=14;" parent="1vejGkWzTbSaWZDoLHbg-10" vertex="1">
          <mxGeometry width="200" height="20" relative="1" as="geometry">
            <mxPoint y="87" as="offset" />
          </mxGeometry>
        </mxCell>
        <mxCell id="1vejGkWzTbSaWZDoLHbg-18" value=" Feedback" style="fillColor=none;strokeColor=none;align=left;spacing=20;fontSize=14;" parent="1vejGkWzTbSaWZDoLHbg-10" vertex="1">
          <mxGeometry width="150" height="20" relative="1" as="geometry">
            <mxPoint y="47" as="offset" />
          </mxGeometry>
        </mxCell>
        <mxCell id="1vejGkWzTbSaWZDoLHbg-27" value="" style="shape=image;html=1;verticalAlign=top;verticalLabelPosition=bottom;labelBackgroundColor=#ffffff;imageAspect=0;aspect=fixed;image=https://cdn1.iconfinder.com/data/icons/science-technology-outline-24-px/24/Body_organ_eye_optical_view_visual-128.png" parent="1vejGkWzTbSaWZDoLHbg-10" vertex="1">
          <mxGeometry x="2.43" y="49.044999999999995" width="16.6725" height="16.6725" as="geometry" />
        </mxCell>
        <mxCell id="1vejGkWzTbSaWZDoLHbg-30" value=" Account management" style="fillColor=none;strokeColor=none;align=left;spacing=20;fontSize=14;" parent="1vejGkWzTbSaWZDoLHbg-10" vertex="1">
          <mxGeometry width="150" height="20" relative="1" as="geometry">
            <mxPoint y="69" as="offset" />
          </mxGeometry>
        </mxCell>
        <mxCell id="1vejGkWzTbSaWZDoLHbg-31" value="" style="shape=image;verticalLabelPosition=bottom;labelBackgroundColor=default;verticalAlign=top;aspect=fixed;imageAspect=0;image=data:image/png,iVBORw0KGgoAAAANSUhEUgAAACAAAAAgCAYAAABzenr0AAAABHNCSVQICAgIfAhkiAAAAAlwSFlzAAAA7AAAAOwBeShxvQAAABl0RVh0U29mdHdhcmUAd3d3Lmlua3NjYXBlLm9yZ5vuPBoAAAM5SURBVFiFrddbjF1jFAfw31ykRijNvJSKS9SoiEbj0ouEKG3CJHgZ4Ukk6sFDIw0eXCN48FCExzY86AMJE0XJqASJCIlb0RrXCoa0Y8yMYWqEczysdTKnMj177znzT76cfb5v/ddaZ61vr7UO5bEOz2I/fmuxvseWsko7SsrdhTvwGIYw2kJ2KV7BenxS1pFWGMAvOLMC5xs8jWMWwoEvcF1FTh/ewHPtGj8Vf+KoI5wP4B18hxdwXtPZkuSe0o4Dq/FtPt+JCfyd61/URIRexAHU8StuS85eXNrKQHeBA51p5EHcjefxUp79hdfxe5N8H7biUfQU6C6Ftfga03iqAm97cgoj0Fmg6A8sFr9mewUHtiWnQ6Rl3g58JVIwX5wuCtO8HZjBfW048CZ+aIMPjhVhXFOBszo5V7ZrvIFpnFZB/gKRukVFgkUpaOAATqzgwFJ8LFK4IA58ILphWVyEDyvIF+JGUfHKdM9ucfE2LqQDi8QccHMJ2XtE+Mu2+tK4GFN4xtyp68ZrGMeKhTbewENmG84lTfsX5l4d91ZRWNSMmrEc54qx6yDeFu22huNE1SReweViKGnbgV5cj804AzubnNkq5oRpke8tIkX/YFi08SfEHDlWxpkGjhaDxk4cwvsitFM4X+R/h/jlw6Lj1XKvE6tEE6sn91DqGkjdR8TZoouNYw9uxzJxq4dwP3Y3yV+WRuoOvw+7U3YouctS157UvS1tHYZrMInHsbJpf7EI3yPox89m6/tkGp8RYxlclTL9yRlLHQ2sTBuTuLqx2SPG7Lkax0nYJUI9ik34VNSDuhi7B/P5lqaz0eTsSh3/R3/K9BAV6/M5hJoxKCaiLlERa6LVNu7AW2bnw66UHSzQuRcbu3CtuMWtCPvxQD6/iw0ilEvE+/8qrsDDYgS7CbdipIXOdah1ibAOm83jXBjBy+K1OigG0lX4SISyX0w+UyIVG0Q5boUVOKsT52BfgbB0cq24/TOi443gJ1EJJ8TFWoPPSujbl7aNi3G6LHrxXvJ25BrPvd4Kevow3i1K63pRwcpik/jbdUN+/zL3js9VBpdjrENcmidxcgUHGjghPyfmwf0Rm/8Dz/HWnequ0CwAAAAASUVORK5CYII=;" parent="1vejGkWzTbSaWZDoLHbg-10" vertex="1">
          <mxGeometry y="11" width="18.08625" height="18.08625" as="geometry" />
        </mxCell>
        <mxCell id="1vejGkWzTbSaWZDoLHbg-33" value="" style="aspect=fixed;perimeter=ellipsePerimeter;html=1;align=center;shadow=0;dashed=0;spacingTop=3;image;image=img/lib/active_directory/home.svg;" parent="1vejGkWzTbSaWZDoLHbg-10" vertex="1">
          <mxGeometry x="-1.00425" y="29.54499999999999" width="20.1045" height="19.5" as="geometry" />
        </mxCell>
        <mxCell id="1vejGkWzTbSaWZDoLHbg-29" value="" style="shape=image;verticalLabelPosition=bottom;labelBackgroundColor=default;verticalAlign=top;aspect=fixed;imageAspect=0;image=data:image/png,iVBORw0KGgoAAAANSUhEUgAAACAAAAAgCAYAAABzenr0AAAABHNCSVQICAgIfAhkiAAAAAlwSFlzAAAA7AAAAOwBeShxvQAAABl0RVh0U29mdHdhcmUAd3d3Lmlua3NjYXBlLm9yZ5vuPBoAAAM5SURBVFiFrddbjF1jFAfw31ykRijNvJSKS9SoiEbj0ouEKG3CJHgZ4Ukk6sFDIw0eXCN48FCExzY86AMJE0XJqASJCIlb0RrXCoa0Y8yMYWqEczysdTKnMj177znzT76cfb5v/ddaZ61vr7UO5bEOz2I/fmuxvseWsko7SsrdhTvwGIYw2kJ2KV7BenxS1pFWGMAvOLMC5xs8jWMWwoEvcF1FTh/ewHPtGj8Vf+KoI5wP4B18hxdwXtPZkuSe0o4Dq/FtPt+JCfyd61/URIRexAHU8StuS85eXNrKQHeBA51p5EHcjefxUp79hdfxe5N8H7biUfQU6C6Ftfga03iqAm97cgoj0Fmg6A8sFr9mewUHtiWnQ6Rl3g58JVIwX5wuCtO8HZjBfW048CZ+aIMPjhVhXFOBszo5V7ZrvIFpnFZB/gKRukVFgkUpaOAATqzgwFJ8LFK4IA58ILphWVyEDyvIF+JGUfHKdM9ucfE2LqQDi8QccHMJ2XtE+Mu2+tK4GFN4xtyp68ZrGMeKhTbewENmG84lTfsX5l4d91ZRWNSMmrEc54qx6yDeFu22huNE1SReweViKGnbgV5cj804AzubnNkq5oRpke8tIkX/YFi08SfEHDlWxpkGjhaDxk4cwvsitFM4X+R/h/jlw6Lj1XKvE6tEE6sn91DqGkjdR8TZoouNYw9uxzJxq4dwP3Y3yV+WRuoOvw+7U3YouctS157UvS1tHYZrMInHsbJpf7EI3yPox89m6/tkGp8RYxlclTL9yRlLHQ2sTBuTuLqx2SPG7Lkax0nYJUI9ik34VNSDuhi7B/P5lqaz0eTsSh3/R3/K9BAV6/M5hJoxKCaiLlERa6LVNu7AW2bnw66UHSzQuRcbu3CtuMWtCPvxQD6/iw0ilEvE+/8qrsDDYgS7CbdipIXOdah1ibAOm83jXBjBy+K1OigG0lX4SISyX0w+UyIVG0Q5boUVOKsT52BfgbB0cq24/TOi443gJ1EJJ8TFWoPPSujbl7aNi3G6LHrxXvJ25BrPvd4Kevow3i1K63pRwcpik/jbdUN+/zL3js9VBpdjrENcmidxcgUHGjghPyfmwf0Rm/8Dz/HWnequ0CwAAAAASUVORK5CYII=;" parent="1vejGkWzTbSaWZDoLHbg-10" vertex="1">
          <mxGeometry x="2.430000000000007" y="65.72000000000003" width="18.08" height="18.08" as="geometry" />
        </mxCell>
        <mxCell id="1vejGkWzTbSaWZDoLHbg-14" value="" style="shape=image;html=1;verticalAlign=top;verticalLabelPosition=bottom;labelBackgroundColor=#ffffff;imageAspect=0;aspect=fixed;image=https://cdn3.iconfinder.com/data/icons/user-interface-169/32/logout-128.png" parent="1vejGkWzTbSaWZDoLHbg-10" vertex="1">
          <mxGeometry x="2.509999999999991" y="92" width="18" height="18" as="geometry" />
        </mxCell>
        <mxCell id="1vejGkWzTbSaWZDoLHbg-50" value="" style="sketch=0;aspect=fixed;html=1;points=[];align=center;image;fontSize=12;image=img/lib/mscae/Person.svg;" parent="1" vertex="1">
          <mxGeometry x="60" y="160" width="22.2" height="30" as="geometry" />
        </mxCell>
        <mxCell id="1vejGkWzTbSaWZDoLHbg-51" value="" style="shape=image;html=1;verticalAlign=top;verticalLabelPosition=bottom;labelBackgroundColor=#ffffff;imageAspect=0;aspect=fixed;image=https://cdn1.iconfinder.com/data/icons/science-technology-outline-24-px/24/Body_organ_eye_optical_view_visual-128.png" parent="1" vertex="1">
          <mxGeometry x="60" y="216" width="28" height="28" as="geometry" />
        </mxCell>
        <mxCell id="46nbZbRhyn5UhW0reh9N-59" value="" style="verticalLabelPosition=bottom;verticalAlign=top;html=1;shadow=0;dashed=0;strokeWidth=1;shape=mxgraph.android.tab2;strokeColor=#c0c0c0;direction=north;" vertex="1" parent="1">
          <mxGeometry x="40" y="330" width="860" height="710" as="geometry" />
        </mxCell>
        <mxCell id="46nbZbRhyn5UhW0reh9N-61" value="" style="rounded=1;whiteSpace=wrap;html=1;" vertex="1" parent="1">
          <mxGeometry x="120" y="560" width="640" height="60" as="geometry" />
        </mxCell>
        <mxCell id="46nbZbRhyn5UhW0reh9N-62" value="" style="verticalLabelPosition=bottom;verticalAlign=top;html=1;shadow=0;dashed=0;strokeWidth=1;shape=mxgraph.android.quickscroll3;dy=0.038;fillColor=#33b5e5;strokeColor=#66D5F5;" vertex="1" parent="1">
          <mxGeometry x="750" y="560" width="70" height="340" as="geometry" />
        </mxCell>
        <mxCell id="46nbZbRhyn5UhW0reh9N-63" value="&amp;nbsp; &amp;nbsp; &amp;nbsp; &amp;nbsp; &amp;nbsp; &amp;nbsp; Search..." style="whiteSpace=wrap;html=1;shadow=0;dashed=0;fontSize=10;align=left;fillColor=#dae8fc;strokeColor=#6c8ebf;" vertex="1" parent="1">
          <mxGeometry x="120" y="510" width="640" height="40" as="geometry" />
        </mxCell>
        <mxCell id="46nbZbRhyn5UhW0reh9N-64" value="LIST VISITOR" style="whiteSpace=wrap;html=1;shadow=0;dashed=0;fontSize=10;align=center;fillColor=#dae8fc;strokeColor=#6c8ebf;" vertex="1" parent="1">
          <mxGeometry x="295" y="450" width="240" height="40" as="geometry" />
        </mxCell>
        <mxCell id="46nbZbRhyn5UhW0reh9N-65" value="" style="rounded=1;whiteSpace=wrap;html=1;" vertex="1" parent="1">
          <mxGeometry x="120" y="633" width="640" height="60" as="geometry" />
        </mxCell>
        <mxCell id="46nbZbRhyn5UhW0reh9N-66" value="Name: Alex" style="text;html=1;strokeColor=none;fillColor=none;align=center;verticalAlign=middle;whiteSpace=wrap;rounded=0;" vertex="1" parent="1">
          <mxGeometry x="122" y="576" width="90" height="30" as="geometry" />
        </mxCell>
        <mxCell id="46nbZbRhyn5UhW0reh9N-67" value="ID Card: 0265675457" style="text;html=1;strokeColor=none;fillColor=none;align=center;verticalAlign=middle;whiteSpace=wrap;rounded=0;" vertex="1" parent="1">
          <mxGeometry x="249" y="576" width="120" height="30" as="geometry" />
        </mxCell>
        <mxCell id="46nbZbRhyn5UhW0reh9N-68" value="Room ID: A101" style="text;html=1;strokeColor=none;fillColor=none;align=center;verticalAlign=middle;whiteSpace=wrap;rounded=0;" vertex="1" parent="1">
          <mxGeometry x="390" y="576" width="100" height="30" as="geometry" />
        </mxCell>
        <mxCell id="46nbZbRhyn5UhW0reh9N-69" value="Menu" style="strokeWidth=1;html=1;shadow=0;dashed=0;shape=mxgraph.ios.iButtonBack;strokeColor=#001DBC;fontColor=#ffffff;buttonText=;fontSize=8;fillColor=#007FFF;fillColor2=#3D5565;spacingLeft=10;whiteSpace=wrap;align=center;sketch=0;" vertex="1" parent="1">
          <mxGeometry x="124" y="455" width="76" height="30" as="geometry" />
        </mxCell>
        <mxCell id="46nbZbRhyn5UhW0reh9N-70" value="" style="html=1;verticalLabelPosition=bottom;align=center;labelBackgroundColor=#ffffff;verticalAlign=top;strokeWidth=2;strokeColor=#0080F0;shadow=0;dashed=0;shape=mxgraph.ios7.icons.looking_glass;" vertex="1" parent="1">
          <mxGeometry x="124" y="516" width="26" height="24" as="geometry" />
        </mxCell>
        <mxCell id="46nbZbRhyn5UhW0reh9N-71" value="Time: 8:30 AM" style="text;html=1;strokeColor=none;fillColor=none;align=center;verticalAlign=middle;whiteSpace=wrap;rounded=0;" vertex="1" parent="1">
          <mxGeometry x="528" y="576" width="95" height="30" as="geometry" />
        </mxCell>
        <mxCell id="46nbZbRhyn5UhW0reh9N-72" value="Name: Bob" style="text;html=1;strokeColor=none;fillColor=none;align=center;verticalAlign=middle;whiteSpace=wrap;rounded=0;" vertex="1" parent="1">
          <mxGeometry x="124" y="648" width="90" height="30" as="geometry" />
        </mxCell>
        <mxCell id="46nbZbRhyn5UhW0reh9N-73" value="ID Card: 0265675457" style="text;html=1;strokeColor=none;fillColor=none;align=center;verticalAlign=middle;whiteSpace=wrap;rounded=0;" vertex="1" parent="1">
          <mxGeometry x="249" y="648" width="120" height="30" as="geometry" />
        </mxCell>
        <mxCell id="46nbZbRhyn5UhW0reh9N-74" value="Time: 9:00 AM" style="text;html=1;strokeColor=none;fillColor=none;align=center;verticalAlign=middle;whiteSpace=wrap;rounded=0;" vertex="1" parent="1">
          <mxGeometry x="528" y="648" width="95" height="30" as="geometry" />
        </mxCell>
        <mxCell id="46nbZbRhyn5UhW0reh9N-75" value="" style="rounded=1;whiteSpace=wrap;html=1;" vertex="1" parent="1">
          <mxGeometry x="120" y="712" width="640" height="60" as="geometry" />
        </mxCell>
        <mxCell id="46nbZbRhyn5UhW0reh9N-76" value="" style="rounded=1;whiteSpace=wrap;html=1;" vertex="1" parent="1">
          <mxGeometry x="120" y="790" width="640" height="60" as="geometry" />
        </mxCell>
        <mxCell id="46nbZbRhyn5UhW0reh9N-77" value="Name: Charles" style="text;html=1;strokeColor=none;fillColor=none;align=center;verticalAlign=middle;whiteSpace=wrap;rounded=0;" vertex="1" parent="1">
          <mxGeometry x="130" y="727" width="90" height="30" as="geometry" />
        </mxCell>
        <mxCell id="46nbZbRhyn5UhW0reh9N-78" value="ID Card: 0265675457" style="text;html=1;strokeColor=none;fillColor=none;align=center;verticalAlign=middle;whiteSpace=wrap;rounded=0;" vertex="1" parent="1">
          <mxGeometry x="249" y="727" width="120" height="30" as="geometry" />
        </mxCell>
        <mxCell id="46nbZbRhyn5UhW0reh9N-79" value="Time: 9:30 AM" style="text;html=1;strokeColor=none;fillColor=none;align=center;verticalAlign=middle;whiteSpace=wrap;rounded=0;" vertex="1" parent="1">
          <mxGeometry x="528" y="727" width="95" height="30" as="geometry" />
        </mxCell>
        <mxCell id="46nbZbRhyn5UhW0reh9N-80" value="Name: David" style="text;html=1;strokeColor=none;fillColor=none;align=center;verticalAlign=middle;whiteSpace=wrap;rounded=0;" vertex="1" parent="1">
          <mxGeometry x="130" y="805" width="90" height="30" as="geometry" />
        </mxCell>
        <mxCell id="46nbZbRhyn5UhW0reh9N-81" value="ID Card: 0265675457" style="text;html=1;strokeColor=none;fillColor=none;align=center;verticalAlign=middle;whiteSpace=wrap;rounded=0;" vertex="1" parent="1">
          <mxGeometry x="249" y="805" width="120" height="30" as="geometry" />
        </mxCell>
        <mxCell id="46nbZbRhyn5UhW0reh9N-82" value="Time: 10:00 AM" style="text;html=1;strokeColor=none;fillColor=none;align=center;verticalAlign=middle;whiteSpace=wrap;rounded=0;" vertex="1" parent="1">
          <mxGeometry x="528" y="805" width="95" height="30" as="geometry" />
        </mxCell>
        <mxCell id="46nbZbRhyn5UhW0reh9N-83" value="1" style="text;html=1;strokeColor=none;fillColor=none;align=center;verticalAlign=middle;whiteSpace=wrap;rounded=0;" vertex="1" parent="1">
          <mxGeometry x="220" y="868" width="60" height="30" as="geometry" />
        </mxCell>
        <mxCell id="46nbZbRhyn5UhW0reh9N-84" value="&lt;b&gt;Page:&lt;/b&gt;" style="text;html=1;strokeColor=none;fillColor=none;align=center;verticalAlign=middle;whiteSpace=wrap;rounded=0;" vertex="1" parent="1">
          <mxGeometry x="170" y="868" width="60" height="30" as="geometry" />
        </mxCell>
        <mxCell id="46nbZbRhyn5UhW0reh9N-85" value="2" style="text;html=1;strokeColor=none;fillColor=none;align=center;verticalAlign=middle;whiteSpace=wrap;rounded=0;" vertex="1" parent="1">
          <mxGeometry x="290" y="868" width="60" height="30" as="geometry" />
        </mxCell>
        <mxCell id="46nbZbRhyn5UhW0reh9N-86" value="3" style="text;html=1;strokeColor=none;fillColor=none;align=center;verticalAlign=middle;whiteSpace=wrap;rounded=0;" vertex="1" parent="1">
          <mxGeometry x="360" y="868" width="60" height="30" as="geometry" />
        </mxCell>
        <mxCell id="46nbZbRhyn5UhW0reh9N-87" value="........." style="text;html=1;strokeColor=none;fillColor=none;align=center;verticalAlign=middle;whiteSpace=wrap;rounded=0;" vertex="1" parent="1">
          <mxGeometry x="425" y="868" width="60" height="30" as="geometry" />
        </mxCell>
        <mxCell id="46nbZbRhyn5UhW0reh9N-88" value="6" style="text;html=1;strokeColor=none;fillColor=none;align=center;verticalAlign=middle;whiteSpace=wrap;rounded=0;" vertex="1" parent="1">
          <mxGeometry x="500" y="868" width="60" height="30" as="geometry" />
        </mxCell>
        <mxCell id="46nbZbRhyn5UhW0reh9N-89" value="" style="shape=image;html=1;verticalAlign=top;verticalLabelPosition=bottom;labelBackgroundColor=#ffffff;imageAspect=0;aspect=fixed;image=https://cdn3.iconfinder.com/data/icons/arrow-outline-8/32/right_2-128.png" vertex="1" parent="1">
          <mxGeometry x="595" y="868" width="28" height="28" as="geometry" />
        </mxCell>
        <mxCell id="46nbZbRhyn5UhW0reh9N-90" value="" style="shape=image;html=1;verticalAlign=top;verticalLabelPosition=bottom;labelBackgroundColor=#ffffff;imageAspect=0;aspect=fixed;image=https://cdn3.iconfinder.com/data/icons/arrow-outline-8/32/left_2-128.png" vertex="1" parent="1">
          <mxGeometry x="125.5" y="869.5" width="25" height="25" as="geometry" />
        </mxCell>
        <mxCell id="46nbZbRhyn5UhW0reh9N-91" value="Room ID: B102" style="text;html=1;strokeColor=none;fillColor=none;align=center;verticalAlign=middle;whiteSpace=wrap;rounded=0;" vertex="1" parent="1">
          <mxGeometry x="390" y="648" width="100" height="30" as="geometry" />
        </mxCell>
        <mxCell id="46nbZbRhyn5UhW0reh9N-92" value="Room ID: C203" style="text;html=1;strokeColor=none;fillColor=none;align=center;verticalAlign=middle;whiteSpace=wrap;rounded=0;" vertex="1" parent="1">
          <mxGeometry x="390" y="727" width="100" height="30" as="geometry" />
        </mxCell>
        <mxCell id="46nbZbRhyn5UhW0reh9N-93" value="Room ID: D305" style="text;html=1;strokeColor=none;fillColor=none;align=center;verticalAlign=middle;whiteSpace=wrap;rounded=0;" vertex="1" parent="1">
          <mxGeometry x="391" y="805" width="100" height="30" as="geometry" />
        </mxCell>
        <mxCell id="46nbZbRhyn5UhW0reh9N-96" value="" style="html=1;verticalLabelPosition=bottom;align=center;labelBackgroundColor=#ffffff;verticalAlign=top;strokeWidth=2;strokeColor=#0080F0;shadow=0;dashed=0;shape=mxgraph.ios7.icons.edit;" vertex="1" parent="1">
          <mxGeometry x="685" y="576" width="29.4" height="26.4" as="geometry" />
        </mxCell>
        <mxCell id="46nbZbRhyn5UhW0reh9N-97" value="" style="shape=image;html=1;verticalAlign=top;verticalLabelPosition=bottom;labelBackgroundColor=#ffffff;imageAspect=0;aspect=fixed;image=https://cdn4.iconfinder.com/data/icons/computer-and-web-2/500/Delete-128.png" vertex="1" parent="1">
          <mxGeometry x="727.6" y="574.8" width="32.4" height="32.4" as="geometry" />
        </mxCell>
        <mxCell id="46nbZbRhyn5UhW0reh9N-98" value="" style="html=1;verticalLabelPosition=bottom;align=center;labelBackgroundColor=#ffffff;verticalAlign=top;strokeWidth=2;strokeColor=#0080F0;shadow=0;dashed=0;shape=mxgraph.ios7.icons.add;" vertex="1" parent="1">
          <mxGeometry x="640" y="576" width="30" height="30" as="geometry" />
        </mxCell>
        <mxCell id="46nbZbRhyn5UhW0reh9N-99" value="" style="html=1;verticalLabelPosition=bottom;align=center;labelBackgroundColor=#ffffff;verticalAlign=top;strokeWidth=2;strokeColor=#0080F0;shadow=0;dashed=0;shape=mxgraph.ios7.icons.add;" vertex="1" parent="1">
          <mxGeometry x="640" y="648" width="30" height="30" as="geometry" />
        </mxCell>
        <mxCell id="46nbZbRhyn5UhW0reh9N-100" value="" style="html=1;verticalLabelPosition=bottom;align=center;labelBackgroundColor=#ffffff;verticalAlign=top;strokeWidth=2;strokeColor=#0080F0;shadow=0;dashed=0;shape=mxgraph.ios7.icons.edit;" vertex="1" parent="1">
          <mxGeometry x="685" y="649.8000000000001" width="29.4" height="26.4" as="geometry" />
        </mxCell>
        <mxCell id="46nbZbRhyn5UhW0reh9N-101" value="" style="shape=image;html=1;verticalAlign=top;verticalLabelPosition=bottom;labelBackgroundColor=#ffffff;imageAspect=0;aspect=fixed;image=https://cdn4.iconfinder.com/data/icons/computer-and-web-2/500/Delete-128.png" vertex="1" parent="1">
          <mxGeometry x="727.6" y="648" width="32.4" height="32.4" as="geometry" />
        </mxCell>
        <mxCell id="46nbZbRhyn5UhW0reh9N-102" value="" style="html=1;verticalLabelPosition=bottom;align=center;labelBackgroundColor=#ffffff;verticalAlign=top;strokeWidth=2;strokeColor=#0080F0;shadow=0;dashed=0;shape=mxgraph.ios7.icons.add;" vertex="1" parent="1">
          <mxGeometry x="640" y="727" width="30" height="30" as="geometry" />
        </mxCell>
        <mxCell id="46nbZbRhyn5UhW0reh9N-103" value="" style="html=1;verticalLabelPosition=bottom;align=center;labelBackgroundColor=#ffffff;verticalAlign=top;strokeWidth=2;strokeColor=#0080F0;shadow=0;dashed=0;shape=mxgraph.ios7.icons.edit;" vertex="1" parent="1">
          <mxGeometry x="685" y="728.8000000000001" width="29.4" height="26.4" as="geometry" />
        </mxCell>
        <mxCell id="46nbZbRhyn5UhW0reh9N-104" value="" style="shape=image;html=1;verticalAlign=top;verticalLabelPosition=bottom;labelBackgroundColor=#ffffff;imageAspect=0;aspect=fixed;image=https://cdn4.iconfinder.com/data/icons/computer-and-web-2/500/Delete-128.png" vertex="1" parent="1">
          <mxGeometry x="727.6" y="725.8" width="32.4" height="32.4" as="geometry" />
        </mxCell>
        <mxCell id="46nbZbRhyn5UhW0reh9N-105" value="" style="html=1;verticalLabelPosition=bottom;align=center;labelBackgroundColor=#ffffff;verticalAlign=top;strokeWidth=2;strokeColor=#0080F0;shadow=0;dashed=0;shape=mxgraph.ios7.icons.add;" vertex="1" parent="1">
          <mxGeometry x="640" y="805" width="30" height="30" as="geometry" />
        </mxCell>
        <mxCell id="46nbZbRhyn5UhW0reh9N-106" value="" style="html=1;verticalLabelPosition=bottom;align=center;labelBackgroundColor=#ffffff;verticalAlign=top;strokeWidth=2;strokeColor=#0080F0;shadow=0;dashed=0;shape=mxgraph.ios7.icons.edit;" vertex="1" parent="1">
          <mxGeometry x="685" y="806.8000000000001" width="29.4" height="26.4" as="geometry" />
        </mxCell>
        <mxCell id="46nbZbRhyn5UhW0reh9N-107" value="" style="shape=image;html=1;verticalAlign=top;verticalLabelPosition=bottom;labelBackgroundColor=#ffffff;imageAspect=0;aspect=fixed;image=https://cdn4.iconfinder.com/data/icons/computer-and-web-2/500/Delete-128.png" vertex="1" parent="1">
          <mxGeometry x="727.6" y="803.8" width="32.4" height="32.4" as="geometry" />
        </mxCell>
        <mxCell id="46nbZbRhyn5UhW0reh9N-108" value="LIST APERMENT" style="whiteSpace=wrap;html=1;shadow=0;dashed=0;fontSize=10;align=center;fillColor=#dae8fc;strokeColor=#6c8ebf;" vertex="1" parent="1">
          <mxGeometry x="1255" y="436.25" width="240" height="40" as="geometry" />
        </mxCell>
        <mxCell id="46nbZbRhyn5UhW0reh9N-109" value="&amp;nbsp; &amp;nbsp; &amp;nbsp; &amp;nbsp; &amp;nbsp; &amp;nbsp; &amp;nbsp;Search..." style="whiteSpace=wrap;html=1;shadow=0;dashed=0;fontSize=10;align=left;fillColor=#dae8fc;strokeColor=#6c8ebf;" vertex="1" parent="1">
          <mxGeometry x="1020" y="486.25" width="635" height="40" as="geometry" />
        </mxCell>
        <mxCell id="46nbZbRhyn5UhW0reh9N-110" value="" style="verticalLabelPosition=bottom;verticalAlign=top;html=1;shadow=0;dashed=0;strokeWidth=1;shape=mxgraph.android.quickscroll3;dy=0.021;fillColor=#33b5e5;strokeColor=#66D5F5;" vertex="1" parent="1">
          <mxGeometry x="1650" y="576.25" width="70" height="340" as="geometry" />
        </mxCell>
        <mxCell id="46nbZbRhyn5UhW0reh9N-111" value="" style="html=1;verticalLabelPosition=bottom;align=center;labelBackgroundColor=#ffffff;verticalAlign=top;strokeWidth=2;strokeColor=#0080F0;shadow=0;dashed=0;shape=mxgraph.ios7.icons.looking_glass;" vertex="1" parent="1">
          <mxGeometry x="1030" y="492.25" width="20" height="24" as="geometry" />
        </mxCell>
        <mxCell id="46nbZbRhyn5UhW0reh9N-112" value="" style="rounded=1;whiteSpace=wrap;html=1;" vertex="1" parent="1">
          <mxGeometry x="1020" y="559.25" width="635" height="60" as="geometry" />
        </mxCell>
        <mxCell id="46nbZbRhyn5UhW0reh9N-113" value="Name: Aderson" style="text;html=1;strokeColor=none;fillColor=none;align=center;verticalAlign=middle;whiteSpace=wrap;rounded=0;" vertex="1" parent="1">
          <mxGeometry x="1040" y="574.25" width="90" height="30" as="geometry" />
        </mxCell>
        <mxCell id="46nbZbRhyn5UhW0reh9N-114" value="Phone: 0935xxxx" style="text;html=1;strokeColor=none;fillColor=none;align=center;verticalAlign=middle;whiteSpace=wrap;rounded=0;" vertex="1" parent="1">
          <mxGeometry x="1170" y="574.25" width="140" height="30" as="geometry" />
        </mxCell>
        <mxCell id="46nbZbRhyn5UhW0reh9N-115" value="Room ID: A101" style="text;html=1;strokeColor=none;fillColor=none;align=center;verticalAlign=middle;whiteSpace=wrap;rounded=0;" vertex="1" parent="1">
          <mxGeometry x="1320" y="574.25" width="120" height="30" as="geometry" />
        </mxCell>
        <mxCell id="46nbZbRhyn5UhW0reh9N-117" value="Menu" style="strokeWidth=1;html=1;shadow=0;dashed=0;shape=mxgraph.ios.iButtonBack;strokeColor=#001DBC;fontColor=#ffffff;buttonText=;fontSize=8;fillColor=#007FFF;fillColor2=#3D5565;spacingLeft=10;whiteSpace=wrap;align=center;sketch=0;" vertex="1" parent="1">
          <mxGeometry x="1020" y="436.25" width="76" height="30" as="geometry" />
        </mxCell>
        <mxCell id="46nbZbRhyn5UhW0reh9N-118" value="" style="rounded=1;whiteSpace=wrap;html=1;" vertex="1" parent="1">
          <mxGeometry x="1020" y="641.25" width="635" height="60" as="geometry" />
        </mxCell>
        <mxCell id="46nbZbRhyn5UhW0reh9N-120" value="Name: Billy" style="text;html=1;strokeColor=none;fillColor=none;align=center;verticalAlign=middle;whiteSpace=wrap;rounded=0;" vertex="1" parent="1">
          <mxGeometry x="1030" y="657.25" width="90" height="30" as="geometry" />
        </mxCell>
        <mxCell id="46nbZbRhyn5UhW0reh9N-122" value="Phone: 0935xxxx" style="text;html=1;strokeColor=none;fillColor=none;align=center;verticalAlign=middle;whiteSpace=wrap;rounded=0;" vertex="1" parent="1">
          <mxGeometry x="1170" y="656.25" width="140" height="30" as="geometry" />
        </mxCell>
        <mxCell id="46nbZbRhyn5UhW0reh9N-123" value="Room ID: B203" style="text;html=1;strokeColor=none;fillColor=none;align=center;verticalAlign=middle;whiteSpace=wrap;rounded=0;" vertex="1" parent="1">
          <mxGeometry x="1320" y="656.25" width="120" height="30" as="geometry" />
        </mxCell>
        <mxCell id="46nbZbRhyn5UhW0reh9N-127" value="" style="rounded=1;whiteSpace=wrap;html=1;" vertex="1" parent="1">
          <mxGeometry x="1020" y="731.25" width="635" height="60" as="geometry" />
        </mxCell>
        <mxCell id="46nbZbRhyn5UhW0reh9N-128" value="Name: Carla" style="text;html=1;strokeColor=none;fillColor=none;align=center;verticalAlign=middle;whiteSpace=wrap;rounded=0;" vertex="1" parent="1">
          <mxGeometry x="1030" y="746.25" width="90" height="30" as="geometry" />
        </mxCell>
        <mxCell id="46nbZbRhyn5UhW0reh9N-129" value="Phone: 0935xxxx" style="text;html=1;strokeColor=none;fillColor=none;align=center;verticalAlign=middle;whiteSpace=wrap;rounded=0;" vertex="1" parent="1">
          <mxGeometry x="1170" y="746.25" width="140" height="30" as="geometry" />
        </mxCell>
        <mxCell id="46nbZbRhyn5UhW0reh9N-130" value="Room ID: C305" style="text;html=1;strokeColor=none;fillColor=none;align=center;verticalAlign=middle;whiteSpace=wrap;rounded=0;" vertex="1" parent="1">
          <mxGeometry x="1320" y="746.25" width="120" height="30" as="geometry" />
        </mxCell>
        <mxCell id="46nbZbRhyn5UhW0reh9N-134" value="" style="rounded=1;whiteSpace=wrap;html=1;" vertex="1" parent="1">
          <mxGeometry x="1020" y="820.75" width="635" height="60" as="geometry" />
        </mxCell>
        <mxCell id="46nbZbRhyn5UhW0reh9N-135" value="Name: Daniel" style="text;html=1;strokeColor=none;fillColor=none;align=center;verticalAlign=middle;whiteSpace=wrap;rounded=0;" vertex="1" parent="1">
          <mxGeometry x="1030" y="835.75" width="90" height="30" as="geometry" />
        </mxCell>
        <mxCell id="46nbZbRhyn5UhW0reh9N-136" value="Phone: 0935xxxx" style="text;html=1;strokeColor=none;fillColor=none;align=center;verticalAlign=middle;whiteSpace=wrap;rounded=0;" vertex="1" parent="1">
          <mxGeometry x="1170" y="835.75" width="140" height="30" as="geometry" />
        </mxCell>
        <mxCell id="46nbZbRhyn5UhW0reh9N-137" value="Room ID: D406" style="text;html=1;strokeColor=none;fillColor=none;align=center;verticalAlign=middle;whiteSpace=wrap;rounded=0;" vertex="1" parent="1">
          <mxGeometry x="1320" y="835.75" width="120" height="30" as="geometry" />
        </mxCell>
        <mxCell id="46nbZbRhyn5UhW0reh9N-141" value="" style="shape=image;html=1;verticalAlign=top;verticalLabelPosition=bottom;labelBackgroundColor=#ffffff;imageAspect=0;aspect=fixed;image=https://cdn3.iconfinder.com/data/icons/arrow-outline-8/32/left_2-128.png" vertex="1" parent="1">
          <mxGeometry x="1030" y="926.25" width="25" height="25" as="geometry" />
        </mxCell>
        <mxCell id="46nbZbRhyn5UhW0reh9N-142" value="&lt;b&gt;Page:&lt;/b&gt;" style="text;html=1;strokeColor=none;fillColor=none;align=center;verticalAlign=middle;whiteSpace=wrap;rounded=0;" vertex="1" parent="1">
          <mxGeometry x="1070" y="923.75" width="60" height="30" as="geometry" />
        </mxCell>
        <mxCell id="46nbZbRhyn5UhW0reh9N-143" value="1" style="text;html=1;strokeColor=none;fillColor=none;align=center;verticalAlign=middle;whiteSpace=wrap;rounded=0;" vertex="1" parent="1">
          <mxGeometry x="1130" y="923.75" width="60" height="30" as="geometry" />
        </mxCell>
        <mxCell id="46nbZbRhyn5UhW0reh9N-144" value="2" style="text;html=1;strokeColor=none;fillColor=none;align=center;verticalAlign=middle;whiteSpace=wrap;rounded=0;" vertex="1" parent="1">
          <mxGeometry x="1210" y="923.75" width="60" height="30" as="geometry" />
        </mxCell>
        <mxCell id="46nbZbRhyn5UhW0reh9N-145" value="3" style="text;html=1;strokeColor=none;fillColor=none;align=center;verticalAlign=middle;whiteSpace=wrap;rounded=0;" vertex="1" parent="1">
          <mxGeometry x="1300" y="923.75" width="60" height="30" as="geometry" />
        </mxCell>
        <mxCell id="46nbZbRhyn5UhW0reh9N-146" value="........." style="text;html=1;strokeColor=none;fillColor=none;align=center;verticalAlign=middle;whiteSpace=wrap;rounded=0;" vertex="1" parent="1">
          <mxGeometry x="1390" y="923.75" width="60" height="30" as="geometry" />
        </mxCell>
        <mxCell id="46nbZbRhyn5UhW0reh9N-147" value="6" style="text;html=1;strokeColor=none;fillColor=none;align=center;verticalAlign=middle;whiteSpace=wrap;rounded=0;" vertex="1" parent="1">
          <mxGeometry x="1470" y="923.75" width="60" height="30" as="geometry" />
        </mxCell>
        <mxCell id="46nbZbRhyn5UhW0reh9N-148" value="" style="shape=image;html=1;verticalAlign=top;verticalLabelPosition=bottom;labelBackgroundColor=#ffffff;imageAspect=0;aspect=fixed;image=https://cdn3.iconfinder.com/data/icons/arrow-outline-8/32/right_2-128.png" vertex="1" parent="1">
          <mxGeometry x="1554" y="924.75" width="28" height="28" as="geometry" />
        </mxCell>
        <mxCell id="46nbZbRhyn5UhW0reh9N-149" value="" style="verticalLabelPosition=bottom;verticalAlign=top;html=1;shadow=0;dashed=0;strokeWidth=1;shape=mxgraph.android.tab2;strokeColor=#c0c0c0;direction=north;" vertex="1" parent="1">
          <mxGeometry x="910" y="330" width="900" height="710" as="geometry" />
        </mxCell>
        <mxCell id="46nbZbRhyn5UhW0reh9N-150" value="" style="html=1;verticalLabelPosition=bottom;align=center;labelBackgroundColor=#ffffff;verticalAlign=top;strokeWidth=2;strokeColor=#0080F0;shadow=0;dashed=0;shape=mxgraph.ios7.icons.add;" vertex="1" parent="1">
          <mxGeometry x="1465" y="574.2" width="30" height="30" as="geometry" />
        </mxCell>
        <mxCell id="46nbZbRhyn5UhW0reh9N-151" value="" style="html=1;verticalLabelPosition=bottom;align=center;labelBackgroundColor=#ffffff;verticalAlign=top;strokeWidth=2;strokeColor=#0080F0;shadow=0;dashed=0;shape=mxgraph.ios7.icons.edit;" vertex="1" parent="1">
          <mxGeometry x="1530" y="576.8" width="29.4" height="26.4" as="geometry" />
        </mxCell>
        <mxCell id="46nbZbRhyn5UhW0reh9N-152" value="" style="shape=image;html=1;verticalAlign=top;verticalLabelPosition=bottom;labelBackgroundColor=#ffffff;imageAspect=0;aspect=fixed;image=https://cdn4.iconfinder.com/data/icons/computer-and-web-2/500/Delete-128.png" vertex="1" parent="1">
          <mxGeometry x="1582" y="573" width="32.4" height="32.4" as="geometry" />
        </mxCell>
        <mxCell id="46nbZbRhyn5UhW0reh9N-153" value="" style="html=1;verticalLabelPosition=bottom;align=center;labelBackgroundColor=#ffffff;verticalAlign=top;strokeWidth=2;strokeColor=#0080F0;shadow=0;dashed=0;shape=mxgraph.ios7.icons.add;" vertex="1" parent="1">
          <mxGeometry x="1465" y="657.25" width="30" height="30" as="geometry" />
        </mxCell>
        <mxCell id="46nbZbRhyn5UhW0reh9N-154" value="" style="html=1;verticalLabelPosition=bottom;align=center;labelBackgroundColor=#ffffff;verticalAlign=top;strokeWidth=2;strokeColor=#0080F0;shadow=0;dashed=0;shape=mxgraph.ios7.icons.edit;" vertex="1" parent="1">
          <mxGeometry x="1530" y="659.05" width="29.4" height="26.4" as="geometry" />
        </mxCell>
        <mxCell id="46nbZbRhyn5UhW0reh9N-155" value="" style="shape=image;html=1;verticalAlign=top;verticalLabelPosition=bottom;labelBackgroundColor=#ffffff;imageAspect=0;aspect=fixed;image=https://cdn4.iconfinder.com/data/icons/computer-and-web-2/500/Delete-128.png" vertex="1" parent="1">
          <mxGeometry x="1582" y="653.05" width="32.4" height="32.4" as="geometry" />
        </mxCell>
        <mxCell id="46nbZbRhyn5UhW0reh9N-156" value="" style="html=1;verticalLabelPosition=bottom;align=center;labelBackgroundColor=#ffffff;verticalAlign=top;strokeWidth=2;strokeColor=#0080F0;shadow=0;dashed=0;shape=mxgraph.ios7.icons.add;" vertex="1" parent="1">
          <mxGeometry x="1465" y="746.25" width="30" height="30" as="geometry" />
        </mxCell>
        <mxCell id="46nbZbRhyn5UhW0reh9N-157" value="" style="html=1;verticalLabelPosition=bottom;align=center;labelBackgroundColor=#ffffff;verticalAlign=top;strokeWidth=2;strokeColor=#0080F0;shadow=0;dashed=0;shape=mxgraph.ios7.icons.edit;" vertex="1" parent="1">
          <mxGeometry x="1530" y="748.05" width="29.4" height="26.4" as="geometry" />
        </mxCell>
        <mxCell id="46nbZbRhyn5UhW0reh9N-158" value="" style="shape=image;html=1;verticalAlign=top;verticalLabelPosition=bottom;labelBackgroundColor=#ffffff;imageAspect=0;aspect=fixed;image=https://cdn4.iconfinder.com/data/icons/computer-and-web-2/500/Delete-128.png" vertex="1" parent="1">
          <mxGeometry x="1582" y="743.8499999999999" width="32.4" height="32.4" as="geometry" />
        </mxCell>
        <mxCell id="46nbZbRhyn5UhW0reh9N-159" value="" style="html=1;verticalLabelPosition=bottom;align=center;labelBackgroundColor=#ffffff;verticalAlign=top;strokeWidth=2;strokeColor=#0080F0;shadow=0;dashed=0;shape=mxgraph.ios7.icons.add;" vertex="1" parent="1">
          <mxGeometry x="1465" y="839.5" width="30" height="30" as="geometry" />
        </mxCell>
        <mxCell id="46nbZbRhyn5UhW0reh9N-160" value="" style="html=1;verticalLabelPosition=bottom;align=center;labelBackgroundColor=#ffffff;verticalAlign=top;strokeWidth=2;strokeColor=#0080F0;shadow=0;dashed=0;shape=mxgraph.ios7.icons.edit;" vertex="1" parent="1">
          <mxGeometry x="1530" y="841.3" width="29.4" height="26.4" as="geometry" />
        </mxCell>
        <mxCell id="46nbZbRhyn5UhW0reh9N-161" value="" style="shape=image;html=1;verticalAlign=top;verticalLabelPosition=bottom;labelBackgroundColor=#ffffff;imageAspect=0;aspect=fixed;image=https://cdn4.iconfinder.com/data/icons/computer-and-web-2/500/Delete-128.png" vertex="1" parent="1">
          <mxGeometry x="1582" y="838.3" width="32.4" height="32.4" as="geometry" />
        </mxCell>
        <mxCell id="46nbZbRhyn5UhW0reh9N-162" value="" style="rounded=1;whiteSpace=wrap;html=1;" vertex="1" parent="1">
          <mxGeometry x="-792.25" y="540" width="490" height="410" as="geometry" />
        </mxCell>
        <mxCell id="46nbZbRhyn5UhW0reh9N-163" value="Name:" style="html=1;shadow=0;dashed=0;shape=mxgraph.bootstrap.rrect;rSize=5;strokeColor=#CED4DA;strokeWidth=1;fillColor=#E9ECEF;fontColor=#505050;whiteSpace=wrap;align=left;verticalAlign=middle;spacingLeft=10;fontSize=14;" vertex="1" parent="1">
          <mxGeometry x="-720" y="613.05" width="360" height="40" as="geometry" />
        </mxCell>
        <mxCell id="46nbZbRhyn5UhW0reh9N-164" value="ID Card:" style="html=1;shadow=0;dashed=0;shape=mxgraph.bootstrap.rrect;rSize=5;strokeColor=#CED4DA;strokeWidth=1;fillColor=#E9ECEF;fontColor=#505050;whiteSpace=wrap;align=left;verticalAlign=middle;spacingLeft=10;fontSize=14;" vertex="1" parent="1">
          <mxGeometry x="-720" y="685.4499999999999" width="360" height="40" as="geometry" />
        </mxCell>
        <mxCell id="46nbZbRhyn5UhW0reh9N-167" value="Room ID:" style="html=1;shadow=0;dashed=0;shape=mxgraph.bootstrap.rrect;rSize=5;strokeColor=#CED4DA;strokeWidth=1;fillColor=#E9ECEF;fontColor=#505050;whiteSpace=wrap;align=left;verticalAlign=middle;spacingLeft=10;fontSize=14;" vertex="1" parent="1">
          <mxGeometry x="-720" y="755.1999999999999" width="360" height="40" as="geometry" />
        </mxCell>
        <mxCell id="46nbZbRhyn5UhW0reh9N-168" value="Time:" style="html=1;shadow=0;dashed=0;shape=mxgraph.bootstrap.rrect;rSize=5;strokeColor=#CED4DA;strokeWidth=1;fillColor=#E9ECEF;fontColor=#505050;whiteSpace=wrap;align=left;verticalAlign=middle;spacingLeft=10;fontSize=14;" vertex="1" parent="1">
          <mxGeometry x="-720" y="834.9999999999999" width="360" height="40" as="geometry" />
        </mxCell>
        <mxCell id="46nbZbRhyn5UhW0reh9N-169" value="&lt;font color=&quot;#0000ff&quot; style=&quot;font-size: 20px;&quot;&gt;New visitor form&lt;/font&gt;" style="rounded=0;whiteSpace=wrap;html=1;" vertex="1" parent="1">
          <mxGeometry x="-660" y="550" width="240" height="48" as="geometry" />
        </mxCell>
        <mxCell id="46nbZbRhyn5UhW0reh9N-170" value="Save" style="rounded=1;html=1;shadow=0;dashed=0;whiteSpace=wrap;fontSize=10;fillColor=#666666;align=center;strokeColor=#4D4D4D;fontColor=#ffffff;" vertex="1" parent="1">
          <mxGeometry x="-600" y="898" width="105.5" height="42" as="geometry" />
        </mxCell>
      </root>
    </mxGraphModel>
  </diagram>
</mxfile>
